<?xml version="1.0" encoding="iso-8859-1"?>
<!-- Generator: Adobe Illustrator 19.0.0, SVG Export Plug-In . SVG Version: 6.00 Build 0)  -->
<svg version="1.1" id="Capa_1" xmlns="http://www.w3.org/2000/svg" xmlns:xlink="http://www.w3.org/1999/xlink" x="0px" y="0px"
	 viewBox="0 0 511.999 511.999" style="enable-background:new 0 0 511.999 511.999;" xml:space="preserve">
<path style="fill:#70B5E8;" d="M380.016,39.243c-66.693,0-282.58,0-349.667,0c-16.657,0-30.238,13.496-30.238,30.238
	c0,17.812,0,359.59,0,373.372c0,16.659,13.497,30.238,30.238,30.238c14.961,0,85.384,0,100.381,0c37.309,0,211.294,0,249.286,0
	c10.332,0,19.581-5.2,25.074-13.332c7.638-11.306,4.395-21.451,5.164-32.709v-7.903c0-113.687,0-246.16,0-349.666
	C410.254,52.82,396.755,39.243,380.016,39.243z"/>
<path style="fill:#52A5D8;" d="M31.29,442.853c0-87.469,0-285.535,0-373.372c0-16.7,13.538-30.238,30.238-30.238
	c-19.302,0-11.879,0-31.178,0c-16.699,0-30.238,13.537-30.238,30.238c0,18.99,0,354.535,0,373.372
	c0,16.659,13.497,30.238,30.238,30.238c19.299,0,11.876,0,31.178,0C44.893,473.091,31.29,459.615,31.29,442.853z"/>
<path style="fill:#F9F9F9;" d="M60.32,228.145H44.913c-4.269,0-7.73-3.46-7.73-7.73c0-4.27,3.461-7.73,7.73-7.73h15.406
	c4.269,0,7.73,3.461,7.73,7.73C68.05,224.685,64.589,228.145,60.32,228.145z"/>
<g>
	<path style="fill:#84C7EF;" d="M60.32,191.041H44.913c-4.269,0-7.73-3.46-7.73-7.73c0-4.27,3.461-7.73,7.73-7.73h15.406
		c4.269,0,7.73,3.461,7.73,7.73C68.05,187.58,64.589,191.041,60.32,191.041z"/>
	<path style="fill:#84C7EF;" d="M60.32,265.25H44.913c-4.269,0-7.73-3.46-7.73-7.73c0-4.27,3.461-7.73,7.73-7.73h15.406
		c4.269,0,7.73,3.461,7.73,7.73C68.05,261.79,64.589,265.25,60.32,265.25z"/>
</g>
<path style="fill:#F9F9F9;" d="M60.32,302.355H44.913c-4.269,0-7.73-3.46-7.73-7.73c0-4.27,3.461-7.73,7.73-7.73h15.406
	c4.269,0,7.73,3.461,7.73,7.73C68.05,298.894,64.589,302.355,60.32,302.355z"/>
<path style="fill:#84C7EF;" d="M60.32,339.459H44.913c-4.269,0-7.73-3.46-7.73-7.73c0-4.27,3.461-7.73,7.73-7.73h15.406
	c4.269,0,7.73,3.461,7.73,7.73C68.05,335.999,64.589,339.459,60.32,339.459z"/>
<path style="fill:#F9F9F9;" d="M60.32,376.564H44.913c-4.269,0-7.73-3.46-7.73-7.73c0-4.27,3.461-7.73,7.73-7.73h15.406
	c4.269,0,7.73,3.461,7.73,7.73C68.05,373.103,64.589,376.564,60.32,376.564z"/>
<path style="fill:#84C7EF;" d="M60.32,413.668H44.913c-4.269,0-7.73-3.46-7.73-7.73c0-4.27,3.461-7.73,7.73-7.73h15.406
	c4.269,0,7.73,3.461,7.73,7.73C68.05,410.208,64.589,413.668,60.32,413.668z"/>
<path style="fill:#666666;" d="M410.254,69.481c0-16.7-13.538-30.238-30.238-30.238H219.255l0,0
	c-208.212,0-199.417-3.152-211.289,9.907c-4.88,5.37-7.855,12.503-7.855,20.331v51.495h219.144l0,0h190.999V69.481z"/>
<path style="fill:#535454;" d="M31.29,69.481c0-16.729,13.566-30.237,30.236-30.238c-27.05,0.135-49.937-4.617-59.311,19.139
	c-2.72,6.892-2.221,6.862-2.102,62.594h31.178C31.29,112.771,31.29,82.324,31.29,69.481z"/>
<path style="fill:#52A5D8;" d="M499.631,275.547H141.874c-6.803,0-12.368-5.566-12.368-12.368v-83.48
	c0-6.803,5.566-12.368,12.368-12.368h357.757c6.803,0,12.368,5.566,12.368,12.368v83.48
	C511.999,269.982,506.433,275.547,499.631,275.547z"/>
<path style="fill:#FFB70D;" d="M499.631,427.05H141.874c-6.803,0-12.368-5.566-12.368-12.368v-83.48
	c0-6.803,5.566-12.368,12.368-12.368h357.757c6.803,0,12.368,5.566,12.368,12.368v83.48
	C511.999,421.485,506.433,427.05,499.631,427.05z"/>
<path style="fill:#3094C6;" d="M160.426,263.179v-83.48c0-6.803,5.566-12.368,12.368-12.368h-30.921
	c-6.803,0-12.368,5.566-12.368,12.368v83.48c0,6.803,5.566,12.368,12.368,12.368h30.921
	C165.992,275.547,160.426,269.982,160.426,263.179z"/>
<path style="fill:#F4A403;" d="M160.426,414.682v-83.48c0-6.803,5.566-12.368,12.368-12.368h-30.921
	c-6.803,0-12.368,5.566-12.368,12.368v83.48c0,6.803,5.566,12.368,12.368,12.368h30.921
	C165.992,427.05,160.426,421.485,160.426,414.682z"/>
<path style="fill:#FFB70D;" d="M435.81,247.721H334.395c-4.269,0-7.73-3.46-7.73-7.73c0-4.27,3.461-7.73,7.73-7.73H435.81
	c4.269,0,7.73,3.46,7.73,7.73C443.54,244.261,440.079,247.721,435.81,247.721z"/>
<path style="fill:#F9F9F9;" d="M392.575,210.617h-29.374c-4.269,0-7.73-3.46-7.73-7.73c0-4.27,3.461-7.73,7.73-7.73h29.374
	c4.269,0,7.73,3.46,7.73,7.73C400.305,207.156,396.844,210.617,392.575,210.617z"/>
<path style="fill:#84C7EF;" d="M470.016,210.617h-47.808c-4.269,0-7.73-3.46-7.73-7.73c0-4.27,3.461-7.73,7.73-7.73h47.808
	c4.269,0,7.73,3.46,7.73,7.73C477.746,207.156,474.285,210.617,470.016,210.617z"/>
<path style="fill:#F9F9F9;" d="M329.961,210.617h-97.657c-4.269,0-7.73-3.46-7.73-7.73c0-4.27,3.461-7.73,7.73-7.73h97.657
	c4.269,0,7.73,3.46,7.73,7.73C337.691,207.156,334.23,210.617,329.961,210.617z"/>
<path style="fill:#84C7EF;" d="M305.729,247.721h-29.374c-4.269,0-7.73-3.46-7.73-7.73c0-4.27,3.461-7.73,7.73-7.73h29.374
	c4.269,0,7.73,3.46,7.73,7.73C313.46,244.261,309.999,247.721,305.729,247.721z"/>
<path style="fill:#F9F9F9;" d="M246.304,247.721h-15.406c-4.269,0-7.73-3.46-7.73-7.73c0-4.27,3.461-7.73,7.73-7.73h15.406
	c4.269,0,7.73,3.46,7.73,7.73C254.034,244.261,250.573,247.721,246.304,247.721z"/>
<path style="fill:#84C7EF;" d="M192.445,247.721h-15.406c-4.269,0-7.73-3.46-7.73-7.73c0-4.27,3.461-7.73,7.73-7.73h15.406
	c4.269,0,7.73,3.46,7.73,7.73C200.176,244.261,196.715,247.721,192.445,247.721z"/>
<path style="fill:#FFB70D;" d="M192.445,210.617h-15.406c-4.269,0-7.73-3.46-7.73-7.73c0-4.27,3.461-7.73,7.73-7.73h15.406
	c4.269,0,7.73,3.46,7.73,7.73C200.176,207.156,196.715,210.617,192.445,210.617z"/>
<g>
	<path style="fill:#F9F9F9;" d="M470.017,247.72c-0.505,0-1.01-0.052-1.515-0.155c-0.495-0.093-0.979-0.248-1.443-0.433
		c-0.464-0.196-0.918-0.433-1.34-0.712c-0.423-0.288-0.814-0.608-1.175-0.968c-0.35-0.35-0.67-0.743-0.959-1.176
		c-0.278-0.412-0.515-0.866-0.711-1.33c-0.185-0.463-0.34-0.948-0.433-1.442c-0.308-1.508-0.153-2.972,0.433-4.473
		c0.196-0.464,0.433-0.907,0.711-1.33c0.289-0.423,0.609-0.825,0.959-1.176c0.361-0.36,0.752-0.68,1.175-0.968
		c0.422-0.279,0.876-0.515,1.34-0.712c0.464-0.185,0.948-0.34,1.443-0.433c1-0.206,2.031-0.206,3.02,0
		c0.495,0.093,0.979,0.248,1.453,0.433c0.464,0.196,0.917,0.433,1.33,0.712c0.422,0.288,0.824,0.608,1.175,0.968
		c0.361,0.35,0.68,0.753,0.959,1.176c0.278,0.423,0.525,0.866,0.711,1.33c0.196,0.474,0.35,0.958,0.443,1.452
		c0.103,0.495,0.155,1,0.155,1.506c0,0.504-0.051,1.01-0.155,1.515c-0.093,0.494-0.248,0.979-0.443,1.442
		c-0.186,0.464-0.433,0.918-0.711,1.33c-0.278,0.433-0.598,0.825-0.959,1.176c-0.35,0.36-0.752,0.68-1.175,0.968
		c-0.413,0.279-0.866,0.515-1.33,0.712c-0.474,0.185-0.959,0.34-1.453,0.433C471.027,247.668,470.522,247.72,470.017,247.72z"/>
	<path style="fill:#F9F9F9;" d="M191.68,395.781l-19.077-19.077c-3.019-3.02-3.019-7.913,0-10.933l19.077-19.077
		c3.019-3.018,7.913-3.018,10.932,0c3.019,3.02,3.019,7.913,0,10.933l-13.611,13.61l13.611,13.61c3.019,3.02,3.019,7.913,0,10.933
		C199.593,398.8,194.699,398.799,191.68,395.781z"/>
	<path style="fill:#F9F9F9;" d="M260.892,398.045c-1.978,0-3.957-0.755-5.466-2.264c-3.019-3.02-3.019-7.913,0-10.933l13.611-13.61
		l-13.611-13.61c-3.019-3.02-3.019-7.913,0-10.933c3.019-3.018,7.913-3.018,10.932,0l19.077,19.077c3.019,3.02,3.019,7.913,0,10.933
		l-19.077,19.077C264.849,397.29,262.871,398.045,260.892,398.045z"/>
	<path style="fill:#F9F9F9;" d="M214.828,409.639c-4.012-1.46-6.08-5.896-4.62-9.908l21.425-58.867
		c1.46-4.011,5.895-6.078,9.908-4.62c4.012,1.46,6.08,5.896,4.62,9.908l-21.425,58.867
		C223.287,408.996,218.875,411.109,214.828,409.639z"/>
</g>
<path style="fill:#F94A46;" d="M44.912,87.841c-2.03,0-4.03-0.825-5.462-2.268c-1.443-1.433-2.268-3.432-2.268-5.462
	c0-6.277,7.028-9.807,12.018-6.432c0.423,0.289,0.824,0.608,1.175,0.968c1.443,1.433,2.267,3.432,2.267,5.463
	c0,2.03-0.824,4.029-2.267,5.462c-0.351,0.36-0.752,0.68-1.175,0.958c-0.412,0.279-0.866,0.525-1.33,0.712
	c-0.464,0.195-0.948,0.35-1.443,0.443C45.922,87.788,45.417,87.841,44.912,87.841z"/>
<path style="fill:#FFB70D;" d="M71.112,87.841c-0.505,0-1.011-0.052-1.505-0.155c-0.495-0.093-0.979-0.248-1.443-0.443
	c-0.474-0.186-0.917-0.433-1.34-0.712c-0.423-0.278-0.814-0.598-1.175-0.958c-1.443-1.433-2.267-3.432-2.267-5.462
	c0-2.031,0.824-4.03,2.267-5.463c0.361-0.36,0.752-0.679,1.175-0.968c0.423-0.279,0.866-0.515,1.34-0.712
	c0.464-0.185,0.948-0.34,1.443-0.443c0.99-0.196,2.021-0.196,3.02,0c0.495,0.103,0.979,0.258,1.443,0.443
	c0.474,0.196,0.918,0.433,1.34,0.712c0.422,0.289,0.814,0.608,1.175,0.968c1.433,1.433,2.268,3.432,2.268,5.463
	c0,2.03-0.835,4.029-2.268,5.462c-0.36,0.36-0.752,0.68-1.175,0.958c-0.423,0.279-0.866,0.525-1.34,0.712
	c-0.464,0.195-0.948,0.35-1.443,0.443C72.122,87.788,71.617,87.841,71.112,87.841z"/>
<path style="fill:#92B620;" d="M97.322,87.841c-0.505,0-1.01-0.052-1.515-0.155c-0.495-0.093-0.979-0.248-1.443-0.443
	c-0.463-0.186-0.917-0.433-1.34-0.712c-0.423-0.278-0.814-0.598-1.175-0.958c-1.432-1.433-2.257-3.432-2.257-5.462
	c0-0.505,0.052-1.011,0.144-1.516c0.103-0.484,0.247-0.978,0.443-1.442c0.196-0.464,0.433-0.918,0.711-1.33
	c0.278-0.433,0.608-0.824,0.958-1.176c0.361-0.36,0.752-0.679,1.175-0.968c0.423-0.279,0.876-0.515,1.34-0.712
	c0.464-0.185,0.949-0.34,1.443-0.443c0.999-0.196,2.03-0.196,3.019,0c0.495,0.103,0.979,0.258,1.443,0.443
	c0.475,0.196,0.918,0.433,1.34,0.712c0.423,0.289,0.814,0.608,1.175,0.968c0.36,0.351,0.68,0.743,0.958,1.176
	c0.278,0.412,0.526,0.866,0.711,1.33c0.196,0.464,0.34,0.958,0.443,1.442c0.103,0.505,0.154,1.011,0.154,1.516
	c0,2.04-0.824,4.029-2.267,5.462c-0.361,0.36-0.752,0.68-1.175,0.958c-0.423,0.279-0.866,0.525-1.34,0.712
	c-0.464,0.195-0.948,0.35-1.443,0.443C98.332,87.788,97.827,87.841,97.322,87.841z"/>
<g>
	<path style="fill:#7E7F7F;" d="M313.825,87.84h-184.32c-4.269,0-7.73-3.46-7.73-7.73c0-4.27,3.461-7.73,7.73-7.73h184.32
		c4.269,0,7.73,3.461,7.73,7.73S318.094,87.84,313.825,87.84z"/>
	<path style="fill:#7E7F7F;" d="M372.616,87.84h-31.607c-4.269,0-7.73-3.46-7.73-7.73c0-4.27,3.461-7.73,7.73-7.73h31.607
		c4.269,0,7.73,3.461,7.73,7.73C380.346,84.379,376.885,87.84,372.616,87.84z"/>
</g>
<g>
</g>
<g>
</g>
<g>
</g>
<g>
</g>
<g>
</g>
<g>
</g>
<g>
</g>
<g>
</g>
<g>
</g>
<g>
</g>
<g>
</g>
<g>
</g>
<g>
</g>
<g>
</g>
<g>
</g>
</svg>
